<svg xmlns="http://www.w3.org/2000/svg" width="742" height="416"
     viewBox="0 0 742 416" font-family="Arial, Helvetica, Segoe UI, sans-serif">
  <title>Development View — AUV System (generated from examples/auv-system/requirements.sysml)</title>
  <defs>
    <marker id="triangle" markerWidth="14" markerHeight="12" refX="12" refY="5"
            orient="auto-start-reverse" markerUnits="userSpaceOnUse">
      <path d="M0,0 L12,5 L0,10 z" fill="white" stroke="#2b2b2b" stroke-width="1.25" />
    </marker>
    <marker id="diamond" markerWidth="18" markerHeight="12" refX="15" refY="5"
            orient="auto-start-reverse" markerUnits="userSpaceOnUse">
      <path d="M1,5 L8,1 L15,5 L8,9 z" fill="#2b2b2b" stroke="#2b2b2b" />
    </marker>
    <marker id="openArrow" markerWidth="12" markerHeight="12" refX="10" refY="5"
            orient="auto" markerUnits="userSpaceOnUse">
      <path d="M0,0 L10,5 L0,10" fill="none" stroke="#2b2b2b" stroke-width="1.25" />
    </marker>
  </defs>
  <rect x="0" y="0" width="742" height="416" fill="white" />
  <rect x="8" y="8" width="726" height="400" fill="none" stroke="#2b2b2b" stroke-width="1.25" />
  <path d="M8,8 L8,30 L201.318,30 L211.318,21 L211.318,8 Z"
        fill="#f4f4ea" stroke="#2b2b2b" stroke-width="1.25" />
  <text x="16" y="23" font-size="11" font-weight="600" fill="#1a1a1a">Development View — AUV System</text>
  <text x="728" y="402" text-anchor="end" font-size="9" fill="#8a8a86">examples/auv-system/requirements.sysml</text>
  
    <g><rect x="228.992" y="320" width="90" height="12"
          fill="#fdfdf6" stroke="#2b2b2b" stroke-width="1.25" />
      <rect x="228.992" y="332" width="130.01600000000002" height="48"
          fill="#fdfdf6" stroke="#2b2b2b" stroke-width="1.25" />
      <text x="294" y="360" text-anchor="middle"
          font-size="12" font-weight="600" fill="#1a1a1a">Requirements</text></g>
    <g><rect x="229" y="190" width="59.127" height="12"
          fill="#fdfdf6" stroke="#2b2b2b" stroke-width="1.25" />
      <rect x="229" y="202" width="130" height="48"
          fill="#fdfdf6" stroke="#2b2b2b" stroke-width="1.25" />
      <text x="294" y="230" text-anchor="middle"
          font-size="12" font-weight="600" fill="#1a1a1a">System</text></g>
    <g><rect x="396" y="60" width="76.243" height="12"
          fill="#fdfdf6" stroke="#2b2b2b" stroke-width="1.25" />
      <rect x="396" y="72" width="130" height="48"
          fill="#fdfdf6" stroke="#2b2b2b" stroke-width="1.25" />
      <text x="461" y="100" text-anchor="middle"
          font-size="12" font-weight="600" fill="#1a1a1a">Mechanics</text></g>
    <g><rect x="576" y="60" width="79.301" height="12"
          fill="#fdfdf6" stroke="#2b2b2b" stroke-width="1.25" />
      <rect x="576" y="72" width="130" height="48"
          fill="#fdfdf6" stroke="#2b2b2b" stroke-width="1.25" />
      <text x="641" y="100" text-anchor="middle"
          font-size="12" font-weight="600" fill="#1a1a1a">Electronics</text></g>
    <g><rect x="36" y="60" width="66.453" height="12"
          fill="#fdfdf6" stroke="#2b2b2b" stroke-width="1.25" />
      <rect x="36" y="72" width="130" height="48"
          fill="#fdfdf6" stroke="#2b2b2b" stroke-width="1.25" />
      <text x="101" y="100" text-anchor="middle"
          font-size="12" font-weight="600" fill="#1a1a1a">Software</text></g>
    <g><rect x="216" y="60" width="72.58" height="12"
          fill="#fdfdf6" stroke="#2b2b2b" stroke-width="1.25" />
      <rect x="216" y="72" width="130" height="48"
          fill="#fdfdf6" stroke="#2b2b2b" stroke-width="1.25" />
      <text x="281" y="100" text-anchor="middle"
          font-size="12" font-weight="600" fill="#1a1a1a">UseCases</text></g>
  
    <polyline points="294,250 294,320" fill="none" stroke="#2b2b2b" stroke-width="1.25" stroke-dasharray="6 4" marker-end="url(#openArrow)" />
    <text x="294" y="280" text-anchor="middle" font-size="9"
          fill="#555555" paint-order="stroke" stroke="white" stroke-width="3">&#171;import&#187;</text>
    <polyline points="461,120 461,130 307,130 307,190" fill="none" stroke="#2b2b2b" stroke-width="1.25" stroke-dasharray="6 4" marker-end="url(#openArrow)" />
    <text x="359" y="125" text-anchor="middle" font-size="9"
          fill="#555555" paint-order="stroke" stroke="white" stroke-width="3">&#171;import&#187;</text>
    <polyline points="619.3333333333334,120 619.3333333333334,140 333,140 333,190" fill="none" stroke="#2b2b2b" stroke-width="1.25" stroke-dasharray="6 4" marker-end="url(#openArrow)" />
    <text x="461.1666666666667" y="135" text-anchor="middle" font-size="9"
          fill="#555555" paint-order="stroke" stroke="white" stroke-width="3">&#171;import&#187;</text>
    <polyline points="662.6666666666666,120 662.6666666666666,260 326.504,260 326.504,320" fill="none" stroke="#2b2b2b" stroke-width="1.25" stroke-dasharray="6 4" marker-end="url(#openArrow)" />
    <text x="534.5853333333333" y="255" text-anchor="middle" font-size="9"
          fill="#555555" paint-order="stroke" stroke="white" stroke-width="3">&#171;import&#187;</text>
    <polyline points="122.66666666666667,120 122.66666666666667,130 255,130 255,190" fill="none" stroke="#2b2b2b" stroke-width="1.25" stroke-dasharray="6 4" marker-end="url(#openArrow)" />
    <text x="213.83333333333331" y="125" text-anchor="middle" font-size="9"
          fill="#555555" paint-order="stroke" stroke="white" stroke-width="3">&#171;import&#187;</text>
    <polyline points="79.33333333333334,120 79.33333333333334,260 261.496,260 261.496,320" fill="none" stroke="#2b2b2b" stroke-width="1.25" stroke-dasharray="6 4" marker-end="url(#openArrow)" />
    <text x="130.41466666666665" y="255" text-anchor="middle" font-size="9"
          fill="#555555" paint-order="stroke" stroke="white" stroke-width="3">&#171;import&#187;</text>
    <polyline points="281,120 281,190" fill="none" stroke="#2b2b2b" stroke-width="1.25" stroke-dasharray="6 4" marker-end="url(#openArrow)" />
    <text x="281" y="150" text-anchor="middle" font-size="9"
          fill="#555555" paint-order="stroke" stroke="white" stroke-width="3">&#171;import&#187;</text>
</svg>
