<svg xmlns="http://www.w3.org/2000/svg" width="655.3340000000001" height="641"
     viewBox="0 0 655.3340000000001 641" font-family="Arial, Helvetica, Segoe UI, sans-serif">
  <title>Implementation view — Coffee Machine (generated from examples/coffee-machine/implementation.sysml)</title>
  <defs>
    <marker id="triangle" markerWidth="14" markerHeight="12" refX="12" refY="5"
            orient="auto-start-reverse" markerUnits="userSpaceOnUse">
      <path d="M0,0 L12,5 L0,10 z" fill="white" stroke="#2b2b2b" stroke-width="1.25" />
    </marker>
    <marker id="diamond" markerWidth="18" markerHeight="12" refX="15" refY="5"
            orient="auto-start-reverse" markerUnits="userSpaceOnUse">
      <path d="M1,5 L8,1 L15,5 L8,9 z" fill="#2b2b2b" stroke="#2b2b2b" />
    </marker>
    <marker id="openArrow" markerWidth="12" markerHeight="12" refX="10" refY="5"
            orient="auto" markerUnits="userSpaceOnUse">
      <path d="M0,0 L10,5 L0,10" fill="none" stroke="#2b2b2b" stroke-width="1.25" />
    </marker>
  </defs>
  <rect x="0" y="0" width="655.3340000000001" height="641" fill="white" />
  <rect x="8" y="8" width="639.3340000000001" height="625" fill="none" stroke="#2b2b2b" stroke-width="1.25" />
  <path d="M8,8 L8,30 L228.202,30 L238.202,21 L238.202,8 Z"
        fill="#f4f4ea" stroke="#2b2b2b" stroke-width="1.25" />
  <text x="16" y="23" font-size="11" font-weight="600" fill="#1a1a1a">Implementation view — Coffee Machine</text>
  <text x="641.3340000000001" y="627" text-anchor="end" font-size="9" fill="#8a8a86">examples/coffee-machine/implementation.sysml</text>
  
    <g><rect x="36" y="60" width="66.453" height="12"
          fill="#fdfdf6" stroke="#2b2b2b" stroke-width="1.25" />
      <rect x="36" y="72" width="583.3340000000001" height="533"
          fill="#fdfdf6" stroke="#2b2b2b" stroke-width="1.25" />
      <text x="46" y="87" font-size="11" font-weight="600" fill="#1a1a1a">Software</text></g>
    <g><rect x="61" y="376" width="59.105" height="12"
          fill="#fdfdf6" stroke="#2b2b2b" stroke-width="1.25" />
      <rect x="61" y="388" width="533.3340000000001" height="192"
          fill="#fdfdf6" stroke="#2b2b2b" stroke-width="1.25" />
      <text x="71" y="403" font-size="11" font-weight="600" fill="#1a1a1a">Control</text></g>
    <g><rect x="86" y="421" width="120" height="134"
          fill="#fdfdf6" stroke="#2b2b2b" stroke-width="1.25" />
      <text x="146" y="442" text-anchor="middle"
          font-size="12" font-weight="600" fill="#1a1a1a">BrewController</text>
      <line x1="86" y1="453" x2="206" y2="453"
          stroke="#2b2b2b" stroke-width="1" />
      <text x="94" y="464"
          font-size="9" fill="#555555">perform actions</text>
      <text x="94" y="478"
          font-size="11" fill="#1a1a1a">doseGrounds</text>
      <text x="94" y="493"
          font-size="11" fill="#1a1a1a">interlockBrewGroup</text>
      <text x="94" y="508"
          font-size="11" fill="#1a1a1a">runDescaleCycle</text>
      <line x1="86" y1="519" x2="206" y2="519"
          stroke="#2b2b2b" stroke-width="1" />
      <text x="94" y="530"
          font-size="9" fill="#555555">ports</text>
      <text x="94" y="544"
          font-size="11" fill="#1a1a1a">brew : BrewApi</text></g>
    <g><rect x="246" y="436" width="163.334" height="104"
          fill="#fdfdf6" stroke="#2b2b2b" stroke-width="1.25" />
      <text x="327.66700000000003" y="457" text-anchor="middle"
          font-size="12" font-weight="600" fill="#1a1a1a">TemperatureController</text>
      <line x1="246" y1="468" x2="409.334" y2="468"
          stroke="#2b2b2b" stroke-width="1" />
      <text x="254" y="479"
          font-size="9" fill="#555555">perform actions</text>
      <text x="254" y="493"
          font-size="11" fill="#1a1a1a">regulateTemperature</text>
      <line x1="246" y1="504" x2="409.334" y2="504"
          stroke="#2b2b2b" stroke-width="1" />
      <text x="254" y="515"
          font-size="9" fill="#555555">ports</text>
      <text x="254" y="529"
          font-size="11" fill="#1a1a1a">temperature : TemperatureApi</text></g>
    <g><rect x="449.334" y="436" width="120" height="104"
          fill="#fdfdf6" stroke="#2b2b2b" stroke-width="1.25" />
      <text x="509.334" y="457" text-anchor="middle"
          font-size="12" font-weight="600" fill="#1a1a1a">MilkController</text>
      <line x1="449.334" y1="468" x2="569.3340000000001" y2="468"
          stroke="#2b2b2b" stroke-width="1" />
      <text x="457.334" y="479"
          font-size="9" fill="#555555">perform actions</text>
      <text x="457.334" y="493"
          font-size="11" fill="#1a1a1a">frothMilk</text>
      <line x1="449.334" y1="504" x2="569.3340000000001" y2="504"
          stroke="#2b2b2b" stroke-width="1" />
      <text x="457.334" y="515"
          font-size="9" fill="#555555">ports</text>
      <text x="457.334" y="529"
          font-size="11" fill="#1a1a1a">milk : MilkApi</text></g>
    <g><rect x="137.788" y="105" width="79.89500000000001" height="12"
          fill="#fdfdf6" stroke="#2b2b2b" stroke-width="1.25" />
      <rect x="137.788" y="117" width="379.75800000000004" height="207"
          fill="#fdfdf6" stroke="#2b2b2b" stroke-width="1.25" />
      <text x="147.788" y="132" font-size="11" font-weight="600" fill="#1a1a1a">Application</text></g>
    <g><rect x="162.788" y="150" width="169.758" height="149"
          fill="#fdfdf6" stroke="#2b2b2b" stroke-width="1.25" />
      <text x="247.66700000000003" y="171" text-anchor="middle"
          font-size="12" font-weight="600" fill="#1a1a1a">RecipeEngine</text>
      <line x1="162.788" y1="182" x2="332.54600000000005" y2="182"
          stroke="#2b2b2b" stroke-width="1" />
      <text x="170.788" y="193"
          font-size="9" fill="#555555">perform actions</text>
      <text x="170.788" y="207"
          font-size="11" fill="#1a1a1a">sequenceRecipe</text>
      <line x1="162.788" y1="218" x2="332.54600000000005" y2="218"
          stroke="#2b2b2b" stroke-width="1" />
      <text x="170.788" y="229"
          font-size="9" fill="#555555">ports</text>
      <text x="170.788" y="243"
          font-size="11" fill="#1a1a1a">recipe : RecipeApi</text>
      <text x="170.788" y="258"
          font-size="11" fill="#1a1a1a">brew : ~BrewApi</text>
      <text x="170.788" y="273"
          font-size="11" fill="#1a1a1a">temperature : ~TemperatureApi</text>
      <text x="170.788" y="288"
          font-size="11" fill="#1a1a1a">milk : ~MilkApi</text></g>
    <g><rect x="372.54600000000005" y="165" width="120" height="119"
          fill="#fdfdf6" stroke="#2b2b2b" stroke-width="1.25" />
      <text x="432.54600000000005" y="186" text-anchor="middle"
          font-size="12" font-weight="600" fill="#1a1a1a">UiApp</text>
      <line x1="372.54600000000005" y1="197" x2="492.54600000000005" y2="197"
          stroke="#2b2b2b" stroke-width="1" />
      <text x="380.54600000000005" y="208"
          font-size="9" fill="#555555">perform actions</text>
      <text x="380.54600000000005" y="222"
          font-size="11" fill="#1a1a1a">selectBeverage</text>
      <text x="380.54600000000005" y="237"
          font-size="11" fill="#1a1a1a">signalDescaleDue</text>
      <line x1="372.54600000000005" y1="248" x2="492.54600000000005" y2="248"
          stroke="#2b2b2b" stroke-width="1" />
      <text x="380.54600000000005" y="259"
          font-size="9" fill="#555555">ports</text>
      <text x="380.54600000000005" y="273"
          font-size="11" fill="#1a1a1a">recipe : ~RecipeApi</text></g>
  
    <polyline points="327.66700000000003,324 327.66700000000003,376" fill="none" stroke="#2b2b2b" stroke-width="1.25" stroke-dasharray="6 4" marker-end="url(#openArrow)" />
    <text x="306.16200000000003" y="353" text-anchor="middle" font-size="9"
          fill="#555555" paint-order="stroke" stroke="white" stroke-width="3">&#171;import&#187;</text>
</svg>
