<svg xmlns="http://www.w3.org/2000/svg" width="910.744" height="424"
     viewBox="0 0 910.744 424" font-family="Arial, Helvetica, Segoe UI, sans-serif">
  <title>Logical view — Coffee Machine (generated from examples/coffee-machine/logical.sysml)</title>
  <defs>
    <marker id="triangle" markerWidth="14" markerHeight="12" refX="12" refY="5"
            orient="auto-start-reverse" markerUnits="userSpaceOnUse">
      <path d="M0,0 L12,5 L0,10 z" fill="white" stroke="#2b2b2b" stroke-width="1.25" />
    </marker>
    <marker id="diamond" markerWidth="18" markerHeight="12" refX="15" refY="5"
            orient="auto-start-reverse" markerUnits="userSpaceOnUse">
      <path d="M1,5 L8,1 L15,5 L8,9 z" fill="#2b2b2b" stroke="#2b2b2b" />
    </marker>
    <marker id="openArrow" markerWidth="12" markerHeight="12" refX="10" refY="5"
            orient="auto" markerUnits="userSpaceOnUse">
      <path d="M0,0 L10,5 L0,10" fill="none" stroke="#2b2b2b" stroke-width="1.25" />
    </marker>
  </defs>
  <rect x="0" y="0" width="910.744" height="424" fill="white" />
  <rect x="8" y="8" width="894.744" height="408" fill="none" stroke="#2b2b2b" stroke-width="1.25" />
  <path d="M8,8 L8,30 L185.423,30 L195.423,21 L195.423,8 Z"
        fill="#f4f4ea" stroke="#2b2b2b" stroke-width="1.25" />
  <text x="16" y="23" font-size="11" font-weight="600" fill="#1a1a1a">Logical view — Coffee Machine</text>
  <text x="896.744" y="410" text-anchor="end" font-size="9" fill="#8a8a86">examples/coffee-machine/logical.sysml</text>
  
    <g><rect x="377.65" y="60" width="114.7" height="40" rx="11" ry="11"
          fill="#fdfdf6" stroke="#2b2b2b" stroke-width="1.25" />
      <text x="435" y="84" text-anchor="middle"
          font-size="12" fill="#1a1a1a">MakeBeverage</text></g>
    <g><rect x="36" y="144" width="110" height="40" rx="11" ry="11"
          fill="#fdfdf6" stroke="#2b2b2b" stroke-width="1.25" />
      <text x="91" y="168" text-anchor="middle"
          font-size="12" fill="#1a1a1a">prepareWater</text></g>
    <g><rect x="70" y="198" width="110" height="40" rx="11" ry="11"
          fill="#fdfdf6" stroke="#2b2b2b" stroke-width="1.25" />
      <text x="125" y="222" text-anchor="middle"
          font-size="12" fill="#1a1a1a">storeWater</text></g>
    <g><rect x="70" y="248" width="110" height="40" rx="11" ry="11"
          fill="#fdfdf6" stroke="#2b2b2b" stroke-width="1.25" />
      <text x="125" y="272" text-anchor="middle"
          font-size="12" fill="#1a1a1a">pumpWater</text></g>
    <g><rect x="70" y="298" width="110" height="40" rx="11" ry="11"
          fill="#fdfdf6" stroke="#2b2b2b" stroke-width="1.25" />
      <text x="125" y="322" text-anchor="middle"
          font-size="12" fill="#1a1a1a">heatWater</text></g>
    <g><rect x="208" y="144" width="110.704" height="40" rx="11" ry="11"
          fill="#fdfdf6" stroke="#2b2b2b" stroke-width="1.25" />
      <text x="263.352" y="168" text-anchor="middle"
          font-size="12" fill="#1a1a1a">prepareCoffee</text></g>
    <g><rect x="242" y="198" width="110" height="40" rx="11" ry="11"
          fill="#fdfdf6" stroke="#2b2b2b" stroke-width="1.25" />
      <text x="297" y="222" text-anchor="middle"
          font-size="12" fill="#1a1a1a">storeBeans</text></g>
    <g><rect x="242" y="248" width="110" height="40" rx="11" ry="11"
          fill="#fdfdf6" stroke="#2b2b2b" stroke-width="1.25" />
      <text x="297" y="272" text-anchor="middle"
          font-size="12" fill="#1a1a1a">grindBeans</text></g>
    <g><rect x="242" y="298" width="110" height="40" rx="11" ry="11"
          fill="#fdfdf6" stroke="#2b2b2b" stroke-width="1.25" />
      <text x="297" y="322" text-anchor="middle"
          font-size="12" fill="#1a1a1a">doseGrounds</text></g>
    <g><rect x="242" y="348" width="110" height="40" rx="11" ry="11"
          fill="#fdfdf6" stroke="#2b2b2b" stroke-width="1.25" />
      <text x="297" y="372" text-anchor="middle"
          font-size="12" fill="#1a1a1a">extractShot</text></g>
    <g><rect x="380" y="144" width="110" height="40" rx="11" ry="11"
          fill="#fdfdf6" stroke="#2b2b2b" stroke-width="1.25" />
      <text x="435" y="168" text-anchor="middle"
          font-size="12" fill="#1a1a1a">prepareMilk</text></g>
    <g><rect x="414" y="198" width="110" height="40" rx="11" ry="11"
          fill="#fdfdf6" stroke="#2b2b2b" stroke-width="1.25" />
      <text x="469" y="222" text-anchor="middle"
          font-size="12" fill="#1a1a1a">storeMilk</text></g>
    <g><rect x="414" y="248" width="110" height="40" rx="11" ry="11"
          fill="#fdfdf6" stroke="#2b2b2b" stroke-width="1.25" />
      <text x="469" y="272" text-anchor="middle"
          font-size="12" fill="#1a1a1a">frothMilk</text></g>
    <g><rect x="552" y="144" width="114.7" height="40" rx="11" ry="11"
          fill="#fdfdf6" stroke="#2b2b2b" stroke-width="1.25" />
      <text x="609.35" y="168" text-anchor="middle"
          font-size="12" fill="#1a1a1a">serveBeverage</text></g>
    <g><rect x="694.7" y="144" width="115.36" height="40" rx="11" ry="11"
          fill="#fdfdf6" stroke="#2b2b2b" stroke-width="1.25" />
      <text x="752.38" y="168" text-anchor="middle"
          font-size="12" fill="#1a1a1a">controlMachine</text></g>
    <g><rect x="728.7" y="198" width="116.704" height="40" rx="11" ry="11"
          fill="#fdfdf6" stroke="#2b2b2b" stroke-width="1.25" />
      <text x="787.052" y="222" text-anchor="middle"
          font-size="12" fill="#1a1a1a">selectBeverage</text></g>
    <g><rect x="728.7" y="248" width="123.376" height="40" rx="11" ry="11"
          fill="#fdfdf6" stroke="#2b2b2b" stroke-width="1.25" />
      <text x="790.388" y="272" text-anchor="middle"
          font-size="12" fill="#1a1a1a">sequenceRecipe</text></g>
    <g><rect x="728.7" y="298" width="146.04399999999998" height="40" rx="11" ry="11"
          fill="#fdfdf6" stroke="#2b2b2b" stroke-width="1.25" />
      <text x="801.722" y="322" text-anchor="middle"
          font-size="12" fill="#1a1a1a">regulateTemperature</text></g>
    <g><rect x="728.7" y="348" width="139.36" height="40" rx="11" ry="11"
          fill="#fdfdf6" stroke="#2b2b2b" stroke-width="1.25" />
      <text x="798.3800000000001" y="372" text-anchor="middle"
          font-size="12" fill="#1a1a1a">interlockBrewGroup</text></g>
  
    <polyline points="54,184 54,218 70,218" fill="none" stroke="#2b2b2b" stroke-width="1.25" />
    <polyline points="54,184 54,268 70,268" fill="none" stroke="#2b2b2b" stroke-width="1.25" />
    <polyline points="54,184 54,318 70,318" fill="none" stroke="#2b2b2b" stroke-width="1.25" />
    <polyline points="435,100 435,122 91,122 91,144" fill="none" stroke="#2b2b2b" stroke-width="1.25" />
    <polyline points="226,184 226,218 242,218" fill="none" stroke="#2b2b2b" stroke-width="1.25" />
    <polyline points="226,184 226,268 242,268" fill="none" stroke="#2b2b2b" stroke-width="1.25" />
    <polyline points="226,184 226,318 242,318" fill="none" stroke="#2b2b2b" stroke-width="1.25" />
    <polyline points="226,184 226,368 242,368" fill="none" stroke="#2b2b2b" stroke-width="1.25" />
    <polyline points="435,100 435,122 263.352,122 263.352,144" fill="none" stroke="#2b2b2b" stroke-width="1.25" />
    <polyline points="398,184 398,218 414,218" fill="none" stroke="#2b2b2b" stroke-width="1.25" />
    <polyline points="398,184 398,268 414,268" fill="none" stroke="#2b2b2b" stroke-width="1.25" />
    <polyline points="435,100 435,122 435,144" fill="none" stroke="#2b2b2b" stroke-width="1.25" />
    <polyline points="435,100 435,122 609.35,122 609.35,144" fill="none" stroke="#2b2b2b" stroke-width="1.25" />
    <polyline points="712.7,184 712.7,218 728.7,218" fill="none" stroke="#2b2b2b" stroke-width="1.25" />
    <polyline points="712.7,184 712.7,268 728.7,268" fill="none" stroke="#2b2b2b" stroke-width="1.25" />
    <polyline points="712.7,184 712.7,318 728.7,318" fill="none" stroke="#2b2b2b" stroke-width="1.25" />
    <polyline points="712.7,184 712.7,368 728.7,368" fill="none" stroke="#2b2b2b" stroke-width="1.25" />
    <polyline points="435,100 435,122 752.38,122 752.38,144" fill="none" stroke="#2b2b2b" stroke-width="1.25" />
</svg>
