<svg xmlns="http://www.w3.org/2000/svg" width="1020.6216666666668" height="806"
     viewBox="0 0 1020.6216666666668 806" font-family="Arial, Helvetica, Segoe UI, sans-serif">
  <title>Physical view — Coffee Machine (generated from examples/coffee-machine/physical.sysml)</title>
  <defs>
    <marker id="triangle" markerWidth="14" markerHeight="12" refX="12" refY="5"
            orient="auto-start-reverse" markerUnits="userSpaceOnUse">
      <path d="M0,0 L12,5 L0,10 z" fill="white" stroke="#2b2b2b" stroke-width="1.25" />
    </marker>
    <marker id="diamond" markerWidth="18" markerHeight="12" refX="15" refY="5"
            orient="auto-start-reverse" markerUnits="userSpaceOnUse">
      <path d="M1,5 L8,1 L15,5 L8,9 z" fill="#2b2b2b" stroke="#2b2b2b" />
    </marker>
    <marker id="openArrow" markerWidth="12" markerHeight="12" refX="10" refY="5"
            orient="auto" markerUnits="userSpaceOnUse">
      <path d="M0,0 L10,5 L0,10" fill="none" stroke="#2b2b2b" stroke-width="1.25" />
    </marker>
  </defs>
  <rect x="0" y="0" width="1020.6216666666668" height="806" fill="white" />
  <rect x="8" y="8" width="1004.6216666666668" height="790" fill="none" stroke="#2b2b2b" stroke-width="1.25" />
  <path d="M8,8 L8,30 L191.55,30 L201.55,21 L201.55,8 Z"
        fill="#f4f4ea" stroke="#2b2b2b" stroke-width="1.25" />
  <text x="16" y="23" font-size="11" font-weight="600" fill="#1a1a1a">Physical view — Coffee Machine</text>
  <text x="1006.6216666666668" y="792" text-anchor="end" font-size="9" fill="#8a8a86">examples/coffee-machine/physical.sysml</text>
  
    <g><rect x="36" y="60" width="948.6216666666668" height="710"
          fill="#f6f6ec" stroke="#2b2b2b" stroke-width="1.25" />
      <text x="510.3108333333334" y="81" text-anchor="middle"
          font-size="12" font-weight="600" fill="#1a1a1a">machine : CoffeeMachine</text></g>
    <g><rect x="561.7280000000001" y="296" width="124.684" height="68"
          fill="#fdfdf6" stroke="#2b2b2b" stroke-width="1.25" />
      <text x="624.07" y="317" text-anchor="middle"
          font-size="12" font-weight="600" fill="#1a1a1a">tank : WaterTank</text>
      <line x1="561.7280000000001" y1="328" x2="686.412" y2="328"
          stroke="#2b2b2b" stroke-width="1" />
      <text x="569.7280000000001" y="339"
          font-size="9" fill="#555555">perform actions</text>
      <text x="569.7280000000001" y="353"
          font-size="11" fill="#1a1a1a">storeWater</text>
      <rect x="619.07" y="359" width="10" height="10"
          fill="white" stroke="#2b2b2b" stroke-width="1.25" /></g>
    <g><rect x="530.4006666666668" y="418" width="138.00400000000002" height="68"
          fill="#fdfdf6" stroke="#2b2b2b" stroke-width="1.25" />
      <text x="599.4026666666668" y="439" text-anchor="middle"
          font-size="12" font-weight="600" fill="#1a1a1a">pump : WaterPump</text>
      <line x1="530.4006666666668" y1="450" x2="668.4046666666668" y2="450"
          stroke="#2b2b2b" stroke-width="1" />
      <text x="538.4006666666668" y="461"
          font-size="9" fill="#555555">perform actions</text>
      <text x="538.4006666666668" y="475"
          font-size="11" fill="#1a1a1a">pumpWater</text>
      <rect x="619.0700000000002" y="413" width="10" height="10"
          fill="white" stroke="#2b2b2b" stroke-width="1.25" />
      <rect x="594.4026666666668" y="481" width="10" height="10"
          fill="white" stroke="#2b2b2b" stroke-width="1.25" />
      <rect x="569.7353333333334" y="413" width="10" height="10"
          fill="white" stroke="#2b2b2b" stroke-width="1.25" /></g>
    <g><rect x="497.71733333333344" y="540" width="150.02800000000002" height="68"
          fill="#fdfdf6" stroke="#2b2b2b" stroke-width="1.25" />
      <text x="572.7313333333334" y="561" text-anchor="middle"
          font-size="12" font-weight="600" fill="#1a1a1a">heater : Thermoblock</text>
      <line x1="497.71733333333344" y1="572" x2="647.7453333333335" y2="572"
          stroke="#2b2b2b" stroke-width="1" />
      <text x="505.71733333333344" y="583"
          font-size="9" fill="#555555">perform actions</text>
      <text x="505.71733333333344" y="597"
          font-size="11" fill="#1a1a1a">heatWater</text>
      <rect x="594.4026666666668" y="535" width="10" height="10"
          fill="white" stroke="#2b2b2b" stroke-width="1.25" />
      <rect x="541.0600000000002" y="603" width="10" height="10"
          fill="white" stroke="#2b2b2b" stroke-width="1.25" />
      <rect x="594.4026666666668" y="603" width="10" height="10"
          fill="white" stroke="#2b2b2b" stroke-width="1.25" />
      <rect x="541.0600000000002" y="535" width="10" height="10"
          fill="white" stroke="#2b2b2b" stroke-width="1.25" /></g>
    <g><rect x="216.02600000000012" y="296" width="150.676" height="68"
          fill="#fdfdf6" stroke="#2b2b2b" stroke-width="1.25" />
      <text x="291.36400000000015" y="317" text-anchor="middle"
          font-size="12" font-weight="600" fill="#1a1a1a">hopper : BeanHopper</text>
      <line x1="216.02600000000012" y1="328" x2="366.7020000000001" y2="328"
          stroke="#2b2b2b" stroke-width="1" />
      <text x="224.02600000000012" y="339"
          font-size="9" fill="#555555">perform actions</text>
      <text x="224.02600000000012" y="353"
          font-size="11" fill="#1a1a1a">storeBeans</text>
      <rect x="286.36400000000015" y="359" width="10" height="10"
          fill="white" stroke="#2b2b2b" stroke-width="1.25" /></g>
    <g><rect x="207.4626666666668" y="418" width="123.352" height="68"
          fill="#fdfdf6" stroke="#2b2b2b" stroke-width="1.25" />
      <text x="269.1386666666668" y="439" text-anchor="middle"
          font-size="12" font-weight="600" fill="#1a1a1a">grinder : Grinder</text>
      <line x1="207.4626666666668" y1="450" x2="330.81466666666677" y2="450"
          stroke="#2b2b2b" stroke-width="1" />
      <text x="215.4626666666668" y="461"
          font-size="9" fill="#555555">perform actions</text>
      <text x="215.4626666666668" y="475"
          font-size="11" fill="#1a1a1a">grindBeans</text>
      <rect x="286.36400000000015" y="413" width="10" height="10"
          fill="white" stroke="#2b2b2b" stroke-width="1.25" />
      <rect x="264.1386666666668" y="481" width="10" height="10"
          fill="white" stroke="#2b2b2b" stroke-width="1.25" />
      <rect x="241.91333333333347" y="413" width="10" height="10"
          fill="white" stroke="#2b2b2b" stroke-width="1.25" /></g>
    <g><rect x="211.6356666666668" y="662" width="188.037" height="83"
          fill="#fdfdf6" stroke="#2b2b2b" stroke-width="1.25" />
      <text x="305.6541666666668" y="683" text-anchor="middle"
          font-size="12" font-weight="600" fill="#1a1a1a">brewUnit : BrewUnit</text>
      <line x1="211.6356666666668" y1="694" x2="399.6726666666668" y2="694"
          stroke="#2b2b2b" stroke-width="1" />
      <text x="219.6356666666668" y="705"
          font-size="9" fill="#555555">perform actions</text>
      <text x="219.6356666666668" y="719"
          font-size="11" fill="#1a1a1a">extractShot</text>
      <text x="219.6356666666668" y="734"
          font-size="11" fill="#1a1a1a">serveBeverage</text>
      <rect x="327.1616666666668" y="657" width="10" height="10"
          fill="white" stroke="#2b2b2b" stroke-width="1.25" />
      <rect x="264.1386666666668" y="657" width="10" height="10"
          fill="white" stroke="#2b2b2b" stroke-width="1.25" />
      <rect x="379.6726666666668" y="657" width="10" height="10"
          fill="white" stroke="#2b2b2b" stroke-width="1.25" />
      <rect x="221.6356666666668" y="657" width="10" height="10"
          fill="white" stroke="#2b2b2b" stroke-width="1.25" /></g>
    <g><rect x="684.6546666666668" y="662" width="138.01600000000002" height="83"
          fill="#fdfdf6" stroke="#2b2b2b" stroke-width="1.25" />
      <text x="753.6626666666668" y="683" text-anchor="middle"
          font-size="12" font-weight="600" fill="#1a1a1a">wand : SteamWand</text>
      <line x1="684.6546666666668" y1="694" x2="822.6706666666669" y2="694"
          stroke="#2b2b2b" stroke-width="1" />
      <text x="692.6546666666668" y="705"
          font-size="9" fill="#555555">perform actions</text>
      <text x="692.6546666666668" y="719"
          font-size="11" fill="#1a1a1a">frothMilk</text>
      <text x="692.6546666666668" y="734"
          font-size="11" fill="#1a1a1a">serveBeverage</text>
      <rect x="697.2796666666668" y="657" width="10" height="10"
          fill="white" stroke="#2b2b2b" stroke-width="1.25" />
      <rect x="800.0456666666669" y="657" width="10" height="10"
          fill="white" stroke="#2b2b2b" stroke-width="1.25" />
      <rect x="754.9176666666668" y="657" width="10" height="10"
          fill="white" stroke="#2b2b2b" stroke-width="1.25" /></g>
    <g><rect x="691.7706666666668" y="199" width="203.499" height="40"
          fill="#fdfdf6" stroke="#2b2b2b" stroke-width="1.25" />
      <text x="793.5201666666668" y="220" text-anchor="middle"
          font-size="12" font-weight="600" fill="#1a1a1a">controller : ControlBoard</text>
      <rect x="788.5201666666668" y="194" width="10" height="10"
          fill="white" stroke="#2b2b2b" stroke-width="1.25" />
      <rect x="875.2696666666668" y="234" width="10" height="10"
          fill="white" stroke="#2b2b2b" stroke-width="1.25" />
      <rect x="763.2816666666668" y="234" width="10" height="10"
          fill="white" stroke="#2b2b2b" stroke-width="1.25" />
      <rect x="701.7706666666668" y="234" width="10" height="10"
          fill="white" stroke="#2b2b2b" stroke-width="1.25" />
      <rect x="822.2816666666668" y="234" width="10" height="10"
          fill="white" stroke="#2b2b2b" stroke-width="1.25" /></g>
    <g><rect x="800.9176666666668" y="418" width="158.704" height="40"
          fill="#fdfdf6" stroke="#2b2b2b" stroke-width="1.25" />
      <text x="880.2696666666668" y="439" text-anchor="middle"
          font-size="12" font-weight="600" fill="#1a1a1a">display : TouchDisplay</text>
      <rect x="875.2696666666668" y="413" width="10" height="10"
          fill="white" stroke="#2b2b2b" stroke-width="1.25" /></g>
    <g><rect x="726.5101666666668" y="105" width="134.01999999999998" height="40"
          fill="#fdfdf6" stroke="#2b2b2b" stroke-width="1.25" />
      <text x="793.5201666666668" y="126" text-anchor="middle"
          font-size="12" font-weight="600" fill="#1a1a1a">psu : MainsSupply</text>
      <rect x="788.5201666666668" y="140" width="10" height="10"
          fill="white" stroke="#2b2b2b" stroke-width="1.25" /></g>
  
    <polyline points="624.0700000000002,369 624.0700000000002,413" fill="none" stroke="#2b2b2b" stroke-width="1.25" />
    <polyline points="599.4026666666668,491 599.4026666666668,535" fill="none" stroke="#2b2b2b" stroke-width="1.25" />
    <polyline points="546.0600000000002,613 546.0600000000002,635 332.1616666666668,635 332.1616666666668,657" fill="none" stroke="#2b2b2b" stroke-width="1.25" />
    <polyline points="599.4026666666668,613 599.4026666666668,635 702.2796666666668,635 702.2796666666668,657" fill="none" stroke="#2b2b2b" stroke-width="1.25" />
    <polyline points="291.36400000000015,369 291.36400000000015,413" fill="none" stroke="#2b2b2b" stroke-width="1.25" />
    <polyline points="269.1386666666668,491 269.1386666666668,657" fill="none" stroke="#2b2b2b" stroke-width="1.25" />
    <polyline points="793.5201666666668,150 793.5201666666668,194" fill="none" stroke="#2b2b2b" stroke-width="1.25" />
    <polyline points="768.2816666666668,244 768.2816666666668,276 469.21500000000015,276 469.21500000000015,391 574.7353333333334,391 574.7353333333334,413" fill="none" stroke="#2b2b2b" stroke-width="1.25" />
    <text x="496.97150000000016" y="341.5" text-anchor="middle" font-size="9"
          fill="#555555" paint-order="stroke" stroke="white" stroke-width="3">ControlLink</text>
    <polyline points="768.2816666666668,244 768.2816666666668,276 458.21500000000015,276 458.21500000000015,513 546.0600000000002,513 546.0600000000002,535" fill="none" stroke="#2b2b2b" stroke-width="1.25" />
    <text x="431.45850000000013" y="341.5" text-anchor="middle" font-size="9"
          fill="#555555" paint-order="stroke" stroke="white" stroke-width="3">ControlLink</text>
    <polyline points="706.7706666666668,244 706.7706666666668,266 123.51300000000003,266 123.51300000000003,391 246.91333333333347,391 246.91333333333347,413" fill="none" stroke="#2b2b2b" stroke-width="1.25" />
    <text x="151.26950000000005" y="341.5" text-anchor="middle" font-size="9"
          fill="#555555" paint-order="stroke" stroke="white" stroke-width="3">ControlLink</text>
    <polyline points="706.7706666666668,244 706.7706666666668,266 112.51300000000003,266 112.51300000000003,635 226.6356666666668,635 226.6356666666668,657" fill="none" stroke="#2b2b2b" stroke-width="1.25" />
    <text x="85.7565" y="455" text-anchor="middle" font-size="9"
          fill="#555555" paint-order="stroke" stroke="white" stroke-width="3">ControlLink</text>
    <polyline points="827.2816666666668,244 827.2816666666668,286 759.9176666666668,286 759.9176666666668,657" fill="none" stroke="#2b2b2b" stroke-width="1.25" />
    <text x="733.1611666666668" y="455" text-anchor="middle" font-size="9"
          fill="#555555" paint-order="stroke" stroke="white" stroke-width="3">ControlLink</text>
    <polyline points="880.2696666666668,244 880.2696666666668,413" fill="none" stroke="#2b2b2b" stroke-width="1.25" />
    <text x="908.0261666666668" y="341.5" text-anchor="middle" font-size="9"
          fill="#555555" paint-order="stroke" stroke="white" stroke-width="3">ControlLink</text>
  
    <text x="630.07" y="379" font-size="9" fill="#1a1a1a" paint-order="stroke" stroke="white" stroke-width="2.5">waterOut</text>
    <text x="630.0700000000002" y="410" font-size="9" fill="#1a1a1a" paint-order="stroke" stroke="white" stroke-width="2.5">waterIn</text>
    <text x="605.4026666666668" y="501" font-size="9" fill="#1a1a1a" paint-order="stroke" stroke="white" stroke-width="2.5">waterOut</text>
    <text x="547.2323333333334" y="410" font-size="9" fill="#1a1a1a" paint-order="stroke" stroke="white" stroke-width="2.5">ctrlIn</text>
    <text x="605.4026666666668" y="532" font-size="9" fill="#1a1a1a" paint-order="stroke" stroke="white" stroke-width="2.5">waterIn</text>
    <text x="487.03900000000016" y="623" font-size="9" fill="#1a1a1a" paint-order="stroke" stroke="white" stroke-width="2.5">hotWaterOut</text>
    <text x="605.4026666666668" y="623" font-size="9" fill="#1a1a1a" paint-order="stroke" stroke="white" stroke-width="2.5">steamOut</text>
    <text x="518.5570000000001" y="532" font-size="9" fill="#1a1a1a" paint-order="stroke" stroke="white" stroke-width="2.5">ctrlIn</text>
    <text x="297.36400000000015" y="379" font-size="9" fill="#1a1a1a" paint-order="stroke" stroke="white" stroke-width="2.5">beansOut</text>
    <text x="297.36400000000015" y="410" font-size="9" fill="#1a1a1a" paint-order="stroke" stroke="white" stroke-width="2.5">beansIn</text>
    <text x="275.1386666666668" y="501" font-size="9" fill="#1a1a1a" paint-order="stroke" stroke="white" stroke-width="2.5">groundsOut</text>
    <text x="219.41033333333348" y="410" font-size="9" fill="#1a1a1a" paint-order="stroke" stroke="white" stroke-width="2.5">ctrlIn</text>
    <text x="338.1616666666668" y="654" font-size="9" fill="#1a1a1a" paint-order="stroke" stroke="white" stroke-width="2.5">waterIn</text>
    <text x="275.1386666666668" y="654" font-size="9" fill="#1a1a1a" paint-order="stroke" stroke="white" stroke-width="2.5">groundsIn</text>
    <text x="390.6726666666668" y="654" font-size="9" fill="#1a1a1a" paint-order="stroke" stroke="white" stroke-width="2.5">coffeeOut</text>
    <text x="232.6356666666668" y="654" font-size="9" fill="#1a1a1a" paint-order="stroke" stroke="white" stroke-width="2.5">ctrlIn</text>
    <text x="708.2796666666668" y="654" font-size="9" fill="#1a1a1a" paint-order="stroke" stroke="white" stroke-width="2.5">steamIn</text>
    <text x="811.0456666666669" y="654" font-size="9" fill="#1a1a1a" paint-order="stroke" stroke="white" stroke-width="2.5">milkOut</text>
    <text x="765.9176666666668" y="654" font-size="9" fill="#1a1a1a" paint-order="stroke" stroke="white" stroke-width="2.5">ctrlIn</text>
    <text x="799.5201666666668" y="191" font-size="9" fill="#1a1a1a" paint-order="stroke" stroke="white" stroke-width="2.5">powerIn</text>
    <text x="886.2696666666668" y="254" font-size="9" fill="#1a1a1a" paint-order="stroke" stroke="white" stroke-width="2.5">uiLink</text>
    <text x="774.2816666666668" y="254" font-size="9" fill="#1a1a1a" paint-order="stroke" stroke="white" stroke-width="2.5">waterCtrl</text>
    <text x="712.7706666666668" y="254" font-size="9" fill="#1a1a1a" paint-order="stroke" stroke="white" stroke-width="2.5">coffeeCtrl</text>
    <text x="833.2816666666668" y="254" font-size="9" fill="#1a1a1a" paint-order="stroke" stroke="white" stroke-width="2.5">milkCtrl</text>
    <text x="886.2696666666668" y="410" font-size="9" fill="#1a1a1a" paint-order="stroke" stroke="white" stroke-width="2.5">ctrlOut</text>
    <text x="799.5201666666668" y="160" font-size="9" fill="#1a1a1a" paint-order="stroke" stroke="white" stroke-width="2.5">powerOut</text>
</svg>
